<svg xmlns="http://www.w3.org/2000/svg" width="21.132" height="16.17" viewBox="0 0 21.132 16.17"><defs><style>.a{fill:#8ec714;}</style></defs><path class="a" d="M12.975,17.917H8.59V6.381A1.315,1.315,0,0,1,9.9,5.07h1.763a1.315,1.315,0,0,1,1.311,1.311Z" transform="translate(-2.96 -1.747)"/><path class="a" d="M4.385,21.331H0v-5.04A1.315,1.315,0,0,1,1.311,14.98H3.074a1.315,1.315,0,0,1,1.311,1.311Z" transform="translate(0 -5.161)"/><path class="a" d="M21.455,20.2H17.07V13a1.315,1.315,0,0,1,1.311-1.311h1.763A1.315,1.315,0,0,1,21.455,13Z" transform="translate(-5.881 -4.028)"/><path class="a" d="M29.935,16.17H25.55V1.311A1.315,1.315,0,0,1,26.861,0h1.763a1.315,1.315,0,0,1,1.311,1.311Z" transform="translate(-8.803)"/></svg>