<svg xmlns="http://www.w3.org/2000/svg" width="14.278" height="14.278" viewBox="0 0 14.278 14.278"><defs><style>.a{fill:#8ec714;}</style></defs><path class="a" d="M7.139,0a7.139,7.139,0,1,0,7.139,7.139A7.139,7.139,0,0,0,7.139,0Zm.255,2.058,2.482-.992a6.678,6.678,0,0,1,.815.44l.007,0a6.7,6.7,0,0,1,.735.539l.02.017q.156.133.3.275l.038.036q.155.151.3.312l.024.028c.085.1.167.194.246.294l.057.071c.086.111.169.225.248.341l-.495,2.1-2.434.811L7.394,4.462ZM1.857,3.084l.056-.071q.117-.149.243-.291l.026-.03q.144-.161.3-.312c.012-.012.024-.024.036-.035q.147-.141.3-.274l.024-.02a6.727,6.727,0,0,1,.728-.535L3.58,1.51a6.685,6.685,0,0,1,.811-.439l2.493.987v2.4L4.539,6.337l-2.434-.81-.495-2.1c.079-.117.162-.23.247-.341Zm-.287,7.707q-.1-.16-.2-.326l-.015-.027q-.1-.165-.18-.336l0,0a6.63,6.63,0,0,1-.313-.738v0C.817,9.239.778,9.117.742,8.995L.73,8.95Q.681,8.777.641,8.6c0-.012-.005-.022-.008-.034A6.623,6.623,0,0,1,.508,7.76L1.96,6.017l2.417.806.7,2.806L3.926,11.163ZM8.724,13.61c-.119.03-.241.055-.363.078l-.052.009c-.1.019-.209.035-.315.048l-.084.011c-.1.011-.2.02-.3.027l-.093.007c-.127.008-.254.012-.383.012s-.235,0-.351-.009c-.014,0-.028,0-.042,0q-.155-.009-.309-.024l-.012,0a6.781,6.781,0,0,1-.671-.107l-1.408-2.2L5.481,9.94H8.8L9.95,11.462Zm4.923-5.043-.008.034q-.04.176-.089.349L13.537,9c-.036.123-.074.244-.117.363v0a6.608,6.608,0,0,1-.313.738l0,0q-.085.171-.18.336l-.015.027q-.1.167-.2.326l-2.348.37L9.2,9.628l.7-2.805,2.417-.806L13.772,7.76a6.608,6.608,0,0,1-.126.806Zm0,0"/></svg>