<svg xmlns="http://www.w3.org/2000/svg" width="23" height="23" viewBox="0 0 23 23"><defs><style>.a{fill:#8ec714;}.b{fill:#fff;}</style></defs><g transform="translate(-0.438 -0.438)"><circle class="a" cx="11.5" cy="11.5" r="11.5" transform="translate(0.438 0.438)"/><path class="b" d="M13.652,16.842a1.2,1.2,0,0,0,.6-.144l-.072,1.64a2.393,2.393,0,0,1-1.544.562c-.874,0-1.448-.2-1.711-.61a1.58,1.58,0,0,1-.251-.862,5.445,5.445,0,0,1,0-.8l.874-4.871H14L13.186,16.3v.156A.4.4,0,0,0,13.652,16.842ZM11.881,9.4a1.891,1.891,0,0,1,.383-1.328,1.7,1.7,0,0,1,1.281-.419c.814,0,1.2.347,1.2,1.065a1.855,1.855,0,0,1-.419,1.328,1.771,1.771,0,0,1-1.292.419C12.264,10.463,11.881,10.093,11.881,9.4Z" transform="translate(-1.009 -1.65)"/></g></svg>